# xmcd
#
# Track frame offsets: 
#        150
#        21950
#        41675
#        59462
#        83775
#        97172
#        111150
#        131175
#        149222
#        169887
#        189850
#        209787
#
# Disc length: 3032 seconds
#
# Revision: 0
# Processed by: cddbd v1.5.2PL0 Copyright (c) Steve Scherf et al.
# Submitted via: ExactAudioCopyFreeDBPlugin 1.0
#
DISCID=bd0bd60c
DTITLE=Sampler - Love Songs
DYEAR=1999
DGENRE=Love Songs
TTITLE0=Gloria Estefan - Always Tomorrow
TTITLE1=Terence Trent D'Arby - Sign Your Name
TTITLE2=Marvin Gaye - Sexual Healing
TTITLE3=The Chimes - I Still Haven`t Faound What I`m Looking For
TTITLE4=Celine Dion - Mon Ami Mà Quittee
TTITLE5=Fleetwood Mac - Albatross
TTITLE6=Bonnie Tyler - Total Eclipse Of The Heart
TTITLE7=Procol Harum - A Whiter Shade Of Pale
TTITLE8=The Art of Noise - Monents In Love
TTITLE9=Amanda Marshall - Let It Rain
TTITLE10=Michael Bolton - Soul Provider
TTITLE11=3T - 24:7 (Radio Edit)
EXTD=
EXTT0=
EXTT1=
EXTT2=
EXTT3=
EXTT4=
EXTT5=
EXTT6=
EXTT7=
EXTT8=
EXTT9=
EXTT10=
EXTT11=
PLAYORDER=
